<svg version="1.0" xmlns="http://www.w3.org/2000/svg" width="256.0pt" height="256.0pt" viewBox="0 0 256.0 256.0" preserveAspectRatio="xMidYMid meet">
  <g transform="translate(0.000000,256.000000) scale(0.100000,-0.100000)" fill="#FFFFFF" stroke="none">
    <path d="M790 1425 l0 -225 190 0 190 0 0 225 0 225 -190 0 -190 0 0 -225z"/>
    <path d="M1460 1345 l0 -145 135 0 135 0 0 145 0 145 -135 0 -135 0 0 -145z"/>
    <path d="M960 910 l0 -30 340 0 340 0 0 30 0 30 -340 0 -340 0 0 -30z"/>
  </g>
</svg>
